<svg width="28" height="28" viewBox="0 0 28 28" fill="none" xmlns="http://www.w3.org/2000/svg">
<path d="M14 0C6.28756 0 0 6.27625 0 14C0 16.6801 0.746365 19.2472 2.15994 21.475L0.0904687 26.4394C-0.0678512 26.8239 1.68511e-08 27.2763 0.271406 27.6042C0.486268 27.853 0.802908 28 1.13086 28C1.22132 28 1.31179 27.9887 1.39095 27.9661L7.72375 26.5073C9.65751 27.4911 11.8174 28 14 28C21.7237 28 28 21.7237 28 14C28 6.27625 21.7237 0 14 0ZM18.5234 15.1309H15.1309V18.5234C15.1309 19.1454 14.622 19.6543 14 19.6543C13.378 19.6543 12.8691 19.1454 12.8691 18.5234V15.1309H9.47658C8.8546 15.1309 8.34572 14.622 8.34572 14C8.34572 13.378 8.8546 12.8691 9.47658 12.8691H12.8691V9.47658C12.8691 8.8546 13.378 8.34572 14 8.34572C14.622 8.34572 15.1309 8.8546 15.1309 9.47658V12.8691H18.5234C19.1454 12.8691 19.6543 13.378 19.6543 14C19.6543 14.622 19.1454 15.1309 18.5234 15.1309Z" fill="#AECDF8"/>
</svg>
